<svg width="100" height="100" viewBox="0 0 100 100" fill="none" xmlns="http://www.w3.org/2000/svg">
<path d="M90.4583 84.5417C91.2471 85.324 91.6908 86.389 91.6908 87.5C91.6908 88.611 91.2471 89.676 90.4583 90.4583C89.676 91.2471 88.611 91.6908 87.5 91.6908C86.389 91.6908 85.324 91.2471 84.5417 90.4583L50 55.875L15.4583 90.4583C14.676 91.2471 13.611 91.6908 12.5 91.6908C11.389 91.6908 10.324 91.2471 9.54167 90.4583C8.75286 89.676 8.30917 88.611 8.30917 87.5C8.30917 86.389 8.75286 85.324 9.54167 84.5417L44.125 50L9.54167 15.4583C8.48476 14.4014 8.07199 12.8609 8.45884 11.4172C8.8457 9.97341 9.97341 8.8457 11.4172 8.45884C12.8609 8.07199 14.4014 8.48476 15.4583 9.54167L50 44.125L84.5417 9.54167C86.1755 7.90783 88.8245 7.90783 90.4583 9.54167C92.0922 11.1755 92.0922 13.8245 90.4583 15.4583L55.875 50L90.4583 84.5417Z" fill="#231F20"/>
</svg>
