<svg width="52" height="42" viewBox="0 0 52 42" fill="none" xmlns="http://www.w3.org/2000/svg">
<path fill-rule="evenodd" clip-rule="evenodd" d="M6.50001 7H45.5C46.6966 7 47.6667 6.2165 47.6667 5.25C47.6667 4.2835 46.6966 3.5 45.5 3.5H6.50001C5.30339 3.5 4.33334 4.2835 4.33334 5.25C4.33334 6.2165 5.30339 7 6.50001 7ZM47.6667 35C47.6667 35.9665 46.6966 36.75 45.5 36.75H6.50001C5.30339 36.75 4.33334 35.9665 4.33334 35C4.33334 34.0335 5.30339 33.25 6.50001 33.25H45.5C46.6966 33.25 47.6667 34.0335 47.6667 35ZM6.50001 19.25H45.5C46.6966 19.25 47.6667 20.0335 47.6667 21C47.6667 21.9665 46.6966 22.75 45.5 22.75H6.50001C5.30339 22.75 4.33334 21.9665 4.33334 21C4.33334 20.0335 5.30339 19.25 6.50001 19.25Z" fill="#231F20"/>
</svg>
