<svg width="100" height="46" viewBox="0 0 100 46" fill="none" xmlns="http://www.w3.org/2000/svg">
<path d="M100 16H92.914C92.521 13.917 90.694 12 88.498 12H85.498C85.327 12 85 11.366 85 11.385V4.834C85 2.353 82.979 0 80.498 0H73.498C71.017 0 69 2.353 69 4.834V16H31V4.834C31 2.353 28.979 0 26.498 0H19.498C17.017 0 15 2.353 15 4.834V11.447C15 11.428 14.669 12 14.498 12H11.498C9.324 12 7.505 13.947 7.089 16H0V30H7.008C7.065 32.433 9.052 34 11.498 34H14.498C14.669 34 15 34.365 15 34.346V41.834C15 44.315 17.017 46 19.498 46H26.498C28.979 46 31 44.315 31 41.834V30H69V41.834C69 44.315 71.017 46 73.498 46H80.498C82.979 46 85 44.315 85 41.834V34.283C85 34.302 85.327 34 85.498 34H88.498C90.923 34 92.892 32.403 92.981 30H100V16ZM4 20H7V26H4V20ZM15 29.5C15 29.776 14.776 30 14.5 30H11.5C11.224 30 11 29.776 11 29.5V16.5C11 16.224 11.224 16 11.5 16H14.5C14.776 16 15 16.224 15 16.5V29.5ZM27 41.834C27 42.105 26.769 42 26.498 42H19.498C19.227 42 19 42.105 19 41.834V29.896V16.896V4.834C19 4.563 19.227 4 19.498 4H26.498C26.769 4 27 4.563 27 4.834V41.834ZM31 26V20H69V26H31ZM81 41.834C81 42.105 80.769 42 80.498 42H73.498C73.227 42 73 42.105 73 41.834V4.834C73 4.563 73.227 4 73.498 4H80.498C80.769 4 81 4.563 81 4.834V16.834V29.834V41.834ZM89 29.5C89 29.776 88.776 30 88.5 30H85.5C85.224 30 85 29.776 85 29.5V16.5C85 16.224 85.224 16 85.5 16H88.5C88.776 16 89 16.224 89 16.5V29.5ZM96 26H93V20H96V26Z" fill="white"/>
</svg>
