<svg width="70" height="60" viewBox="0 0 70 60" fill="none" xmlns="http://www.w3.org/2000/svg">
<path d="M69.918 58.1794L50.2382 24.9651C50.0195 24.6437 49.5822 24.3223 49.1449 24.3223C48.7075 24.3223 48.2702 24.5366 48.0515 24.9651L39.305 39.858L34.057 30.9651C34.057 30.858 33.9477 30.858 33.9477 30.7508L26.2944 17.5723C25.8571 16.8223 24.6544 16.8223 24.2171 17.5723L16.5638 30.6437C16.4545 30.7508 16.3452 30.9651 16.2358 31.0723L0.163998 58.1794C-0.0546661 58.5008 -0.0546661 59.0366 0.163998 59.358C0.382663 59.6794 0.819992 60.0008 1.25732 60.0008H49.2542H68.8247C69.262 60.0008 69.6993 59.7866 69.918 59.358C70.0273 59.0366 70.0273 58.608 69.918 58.1794ZM49.2542 27.9651L53.2995 34.8223L51.9875 36.108L49.9102 34.0723C49.4729 33.6437 48.7075 33.6437 48.1609 34.0723L46.1929 36.0008L45.0996 34.9294L49.2542 27.9651ZM25.2011 20.4651L31.5424 31.1794L29.1371 33.5366L25.7478 30.2151C25.3104 29.7866 24.5451 29.7866 23.9984 30.2151L20.9371 33.2151L18.8598 31.1794L25.2011 20.4651ZM17.6572 33.3223L20.1718 35.7866C20.6091 36.2151 21.3745 36.2151 21.9211 35.7866L24.9824 32.7865L28.3717 36.108C28.5904 36.3223 28.9184 36.4294 29.2464 36.4294C29.5744 36.4294 29.9024 36.3223 30.121 36.108L32.9637 33.3223L47.0676 57.3223L47.2862 57.6437H3.33463L17.6572 33.3223ZM49.9102 57.6437L40.8356 42.2151L43.8969 36.9651L45.4276 38.4651C45.8649 38.8937 46.6302 38.8937 47.1769 38.4651L49.1449 36.5365L51.2222 38.5723C51.4408 38.7866 51.7688 38.8937 52.0968 38.8937C52.4248 38.8937 52.7528 38.7866 52.9715 38.5723L54.6115 36.9651L66.7474 57.6437H49.9102Z" fill="white"/>
<path d="M42.8031 13.4994C44.9898 13.4994 46.7391 11.7852 46.7391 9.6423C46.7391 7.49944 44.9898 5.78516 42.8031 5.78516C40.6165 5.78516 38.8672 7.49944 38.8672 9.6423C38.8672 11.7852 40.6165 13.4994 42.8031 13.4994ZM42.8031 8.1423C43.6778 8.1423 44.3338 8.78516 44.3338 9.6423C44.3338 10.4994 43.6778 11.1423 42.8031 11.1423C41.9285 11.1423 41.2725 10.4994 41.2725 9.6423C41.2725 8.78516 42.0378 8.1423 42.8031 8.1423Z" fill="white"/>
<path d="M42.8032 4.39286C43.4592 4.39286 44.0059 3.85714 44.0059 3.21429V1.17857C44.0059 0.535714 43.4592 0 42.8032 0C42.1472 0 41.6006 0.535714 41.6006 1.17857V3.21429C41.6006 3.85714 42.1472 4.39286 42.8032 4.39286Z" fill="white"/>
<path d="M41.6006 16.0711V18.1069C41.6006 18.7497 42.1472 19.2854 42.8032 19.2854C43.4592 19.2854 44.0059 18.7497 44.0059 18.1069V16.0711C44.0059 15.4283 43.4592 14.8926 42.8032 14.8926C42.1472 14.8926 41.6006 15.4283 41.6006 16.0711Z" fill="white"/>
<path d="M48.1606 9.64342C48.1606 10.2863 48.7073 10.822 49.3633 10.822H51.4406C52.0966 10.822 52.6433 10.2863 52.6433 9.64342C52.6433 9.00056 52.0966 8.46484 51.4406 8.46484H49.3633C48.7073 8.46484 48.1606 9.00056 48.1606 9.64342Z" fill="white"/>
<path d="M34.166 10.822H36.2433C36.8993 10.822 37.446 10.2863 37.446 9.64342C37.446 9.00056 36.8993 8.46484 36.2433 8.46484H34.166C33.51 8.46484 32.9634 9.00056 32.9634 9.64342C32.9634 10.2863 33.51 10.822 34.166 10.822Z" fill="white"/>
<path d="M47.5049 6.32199C47.8329 6.32199 48.1609 6.21484 48.3796 6.00056L49.9102 4.50056C50.3475 4.07199 50.3475 3.32199 49.9102 2.78627C49.4729 2.3577 48.7076 2.3577 48.1609 2.78627L46.6302 4.28627C46.1929 4.71484 46.1929 5.46484 46.6302 6.00056C46.8489 6.21484 47.1769 6.32199 47.5049 6.32199Z" fill="white"/>
<path d="M37.3372 13.392L35.8065 14.892C35.3692 15.3206 35.3692 16.0706 35.8065 16.6063C36.0252 16.8206 36.3532 16.9277 36.6812 16.9277C37.0092 16.9277 37.3372 16.8206 37.5558 16.6063L39.0865 15.1063C39.5238 14.6777 39.5238 13.9277 39.0865 13.392C38.5398 12.8563 37.7745 12.8563 37.3372 13.392Z" fill="white"/>
<path d="M46.6302 13.392C46.1929 13.8206 46.1929 14.5706 46.6302 15.1063L48.1609 16.6063C48.3796 16.8206 48.7076 16.9277 49.0356 16.9277C49.3636 16.9277 49.6915 16.8206 49.9102 16.6063C50.3475 16.1777 50.3475 15.4277 49.9102 14.892L48.3796 13.392C47.8329 12.8563 47.0676 12.8563 46.6302 13.392Z" fill="white"/>
<path d="M37.3372 6.00056C37.5558 6.21484 37.8838 6.32199 38.2118 6.32199C38.5398 6.32199 38.8678 6.21484 39.0865 6.00056C39.5238 5.57199 39.5238 4.82199 39.0865 4.28627L37.5558 2.78627C37.1185 2.3577 36.3532 2.3577 35.8065 2.78627C35.3692 3.21484 35.3692 3.96484 35.8065 4.50056L37.3372 6.00056Z" fill="white"/>
</svg>
