<svg width="60" height="60" viewBox="0 0 60 60" fill="none" xmlns="http://www.w3.org/2000/svg">
<path d="M48 26.6667C48 23.47 45.96 20.7967 43.257 20.1533C44.337 18.15 45 15.8333 45 13.3333C45 5.98 39.618 0 33 0C28.449 0 24.537 2.85667 22.5 7.01333C20.463 2.85667 16.551 0 12 0C5.382 0 0 5.98 0 13.3333C0 16.34 0.936 19.09 2.451 21.32C1.69376 21.9352 1.07737 22.7398 0.651601 23.6685C0.225831 24.5973 0.00262187 25.6243 0 26.6667V53.3333C0 57.01 2.691 60 6 60H42C45.309 60 48 57.01 48 53.3333V44.54L60 51.2067V27.8733L48 34.54V26.6667ZM33 6.66667C36.309 6.66667 39 9.65667 39 13.3333C39 17.01 36.309 20 33 20C29.691 20 27 17.01 27 13.3333C27 9.65667 29.691 6.66667 33 6.66667ZM12 6.66667C15.309 6.66667 18 9.65667 18 13.3333C18 17.01 15.309 20 12 20C8.691 20 6 17.01 6 13.3333C6 9.65667 8.691 6.66667 12 6.66667ZM6 53.3333V26.6667H42L42.006 53.3333H6Z" fill="white"/>
</svg>
