<svg width="68" height="72" viewBox="0 0 68 72" fill="none" xmlns="http://www.w3.org/2000/svg">
<path d="M45.5 20H27.95H13.9986C11.4238 20 8.97239 21.1029 7.26453 23.0298L7.13031 23.1812C5.75783 24.7296 5 26.7271 5 28.7963V28.7963C5 33.4715 8.79003 37.2615 13.4653 37.2615H27.95H41.8769C46.3632 37.2615 50 40.8984 50 45.3846V45.3846V45.3846C50 49.5905 46.5905 53 42.3846 53H27.95H8" stroke="#89CFF0" stroke-width="10"/>
<path d="M23 5H53C58.5228 5 63 9.47715 63 15V25.9337C63 28.8339 61.7409 31.5912 59.5493 33.4906L55.5 37M55.5 37L43 37.5M55.5 37L59.5493 40.5094C61.7409 42.4088 63 45.1661 63 48.0663V57C63 62.5228 58.5228 67 53 67H16" stroke="#89CFF0" stroke-width="10"/>
<rect x="11" y="62" width="17" height="10" rx="5" fill="#89CFF0"/>
<rect x="3" y="48" width="17" height="10" rx="5" fill="#89CFF0"/>
<path d="M34 20C34 17.2386 36.2386 15 39 15H46C48.7614 15 51 17.2386 51 20V20C51 22.7614 48.7614 25 46 25H39C36.2386 25 34 22.7614 34 20V20Z" fill="#89CFF0"/>
<rect x="18" width="17" height="10" rx="5" fill="#89CFF0"/>
</svg>
