<svg width="68" height="73" viewBox="0 0 68 73" fill="none" xmlns="http://www.w3.org/2000/svg">
<path d="M45.5 20H27.95H13.9986C11.4238 20 8.97239 21.1029 7.26453 23.0298L7.13031 23.1812C5.75783 24.7296 5 26.7271 5 28.7963V28.7963C5 33.4715 8.79003 37.2615 13.4653 37.2615H27.95H41.8769C46.3632 37.2615 50 40.8984 50 45.3846V45.3846V45.3846C50 49.5905 46.5905 53 42.3846 53H27.95H5" stroke="#89CFF0" stroke-width="10"/>
<path d="M23 5H53C58.5228 5 63 9.47715 63 15V25.9337C63 28.8339 61.7409 31.5912 59.5493 33.4906L55.5 37M55.5 37L43 37.5M55.5 37L59.5493 40.5094C61.7409 42.4088 63 45.1661 63 48.0663V57C63 62.5228 58.5228 67 53 67H16" stroke="#89CFF0" stroke-width="10"/>
<path d="M32 2C32 10 33.5228 10.0003 28 10.0003C21 10.0001 18 10.5 18 5.26475C18 -1.73633 24.8155 0.264757 28 0.264683C32.5 0.264683 32 -0.761538 32 2Z" fill="#89CFF0"/>
<path d="M38.1924 23.0137C38.1924 15.0137 36.6696 15.0134 42.1924 15.0134C49.1924 15.0135 52.1924 14.5137 52.1924 19.7489C52.1924 26.75 45.3769 24.7489 42.1923 24.749C37.6924 24.749 38.1924 25.7752 38.1924 23.0137Z" fill="#89CFF0"/>
<path d="M23 64C23 72 24.5228 72.0003 19 72.0003C12 72.0001 9 72.5 9 67.2648C9 60.2637 15.8155 62.2648 19 62.2647C23.5 62.2647 23 61.2385 23 64Z" fill="#89CFF0"/>
<path d="M14 50C14 58 15.5228 58.0003 9.99997 58.0003C2.99997 58.0001 0 58.5 0 53.2648C0 46.2637 6.81547 48.2648 10 48.2647C14.5 48.2647 14 47.2385 14 50Z" fill="#89CFF0"/>
</svg>
